<svg width="12.000000" height="23.000000" viewBox="0 0 12 23" fill="none" xmlns="http://www.w3.org/2000/svg" xmlns:xlink="http://www.w3.org/1999/xlink">
	<desc>
			Created with Pixso.
	</desc>
	<defs/>
	<g opacity="0.700126">
		<path d="M11.7468 10.8688L1.46973 0.260071C1.13306 -0.0872803 0.587891 -0.086731 0.251709 0.261902C-0.0842285 0.610413 -0.083252 1.17505 0.253418 1.52271L9.9187 11.5001L0.253174 21.4774C-0.0837402 21.825 -0.0844727 22.3893 0.251465 22.7379C0.419922 22.9126 0.640625 23 0.861328 23C1.08154 23 1.30151 22.9132 1.46973 22.7397L11.7468 12.1312C11.9089 11.9642 12 11.7369 12 11.5001C12 11.2632 11.9087 11.0362 11.7468 10.8688Z" fill="#363838" fill-opacity="1.000000" fill-rule="evenodd"/>
		<path d="M1.46973 0.260071C1.13306 -0.0872803 0.587891 -0.086731 0.251709 0.261902C-0.0842285 0.610413 -0.083252 1.17505 0.253418 1.52271L9.9187 11.5001L0.253174 21.4774C-0.0837402 21.825 -0.0844727 22.3893 0.251465 22.7379C0.419922 22.9126 0.640625 23 0.861328 23C1.08154 23 1.30151 22.9132 1.46973 22.7397L11.7468 12.1312C11.9089 11.9642 12 11.7369 12 11.5001C12 11.2632 11.9087 11.0362 11.7468 10.8688L1.46973 0.260071Z" stroke="#979797" stroke-opacity="0" stroke-width="0.000000"/>
	</g>
</svg>
