<svg width="12.000000" height="23.000000" viewBox="0 0 12 23" fill="none" xmlns="http://www.w3.org/2000/svg" xmlns:xlink="http://www.w3.org/1999/xlink">
	<desc>
			Created with Pixso.
	</desc>
	<defs/>
	<g opacity="0.700126">
		<path d="M0.253174 10.8688L10.5303 0.260071C10.8669 -0.0872803 11.4121 -0.086731 11.7483 0.261902C12.0842 0.610413 12.0833 1.17505 11.7466 1.52271L2.0813 11.5001L11.7468 21.4774C12.0837 21.825 12.0845 22.3893 11.7485 22.7379C11.5801 22.9126 11.3594 23 11.1387 23C10.9185 23 10.6985 22.9132 10.5303 22.7397L0.253174 12.1312C0.0910645 11.9642 0 11.7369 0 11.5001C0 11.2632 0.0913086 11.0362 0.253174 10.8688Z" fill="#363838" fill-opacity="1.000000" fill-rule="evenodd"/>
		<path d="M10.5303 0.260071C10.8669 -0.0872803 11.4121 -0.086731 11.7483 0.261902C12.0842 0.610413 12.0833 1.17505 11.7466 1.52271L2.0813 11.5001L11.7468 21.4774C12.0837 21.825 12.0845 22.3893 11.7485 22.7379C11.5801 22.9126 11.3594 23 11.1387 23C10.9185 23 10.6985 22.9132 10.5303 22.7397L0.253174 12.1312C0.0910645 11.9642 0 11.7369 0 11.5001C0 11.2632 0.0913086 11.0362 0.253174 10.8688L10.5303 0.260071Z" stroke="#979797" stroke-opacity="0" stroke-width="0.000000"/>
	</g>
</svg>
