<svg width="15.500000" height="15.406250" viewBox="0 0 15.5 15.4062" fill="none" xmlns="http://www.w3.org/2000/svg" xmlns:xlink="http://www.w3.org/1999/xlink">
	<desc>
			Created with Pixso.
	</desc>
	<defs/>
	<path id="Facebook" d="M15.5 7.75C15.5 3.46875 12.0312 0 7.75 0C3.46875 0 0 3.46875 0 7.75C0 11.625 2.8125 14.8438 6.53125 15.4062L6.53125 10L4.5625 10L4.5625 7.75L6.53125 7.75L6.53125 6.0625C6.53125 4.125 7.6875 3.03125 9.4375 3.03125C10.3125 3.03125 11.1875 3.1875 11.1875 3.1875L11.1875 5.09375L10.2188 5.09375C9.25 5.09375 8.9375 5.6875 8.9375 6.3125L8.9375 7.75L11.0938 7.75L10.75 10L8.9375 10L8.9375 15.4062C12.6562 14.8438 15.5 11.625 15.5 7.75Z" fill="#5A5A5A" fill-opacity="1.000000" fill-rule="evenodd"/>
</svg>
