<svg width="14.000000" height="14.000000" viewBox="0 0 14 14" fill="none" xmlns="http://www.w3.org/2000/svg" xmlns:xlink="http://www.w3.org/1999/xlink">
	<desc>
			Created with Pixso.
	</desc>
	<defs/>
	<path id="Instagram" d="M7.01562 3.39062C5.01562 3.39062 3.42188 5.01562 3.42188 6.98438C3.42188 8.98438 5.01562 10.5781 7.01562 10.5781C8.98438 10.5781 10.6094 8.98438 10.6094 6.98438C10.6094 5.01562 8.98438 3.39062 7.01562 3.39062ZM7.01562 9.32812C5.73438 9.32812 4.67188 8.29688 4.67188 6.98438C4.67188 5.70312 5.70312 4.67188 7.01562 4.67188C8.29688 4.67188 9.32812 5.70312 9.32812 6.98438C9.32812 8.29688 8.29688 9.32812 7.01562 9.32812ZM11.5781 3.26562C11.5781 2.79688 11.2031 2.42188 10.7344 2.42188C10.2656 2.42188 9.89062 2.79688 9.89062 3.26562C9.89062 3.73438 10.2656 4.10938 10.7344 4.10938C11.2031 4.10938 11.5781 3.73438 11.5781 3.26562ZM13.9531 4.10938C13.8906 2.98438 13.6406 1.98438 12.8281 1.17188C12.0156 0.359375 11.0156 0.109375 9.89062 0.046875C8.73438 -0.015625 5.26562 -0.015625 4.10938 0.046875C2.98438 0.109375 2.01562 0.359375 1.17188 1.17188C0.359375 1.98438 0.109375 2.98438 0.046875 4.10938C-0.015625 5.26562 -0.015625 8.73438 0.046875 9.89062C0.109375 11.0156 0.359375 11.9844 1.17188 12.8281C2.01562 13.6406 2.98438 13.8906 4.10938 13.9531C5.26562 14.0156 8.73438 14.0156 9.89062 13.9531C11.0156 13.8906 12.0156 13.6406 12.8281 12.8281C13.6406 11.9844 13.8906 11.0156 13.9531 9.89062C14.0156 8.73438 14.0156 5.26562 13.9531 4.10938ZM12.4531 11.1094C12.2344 11.7344 11.7344 12.2031 11.1406 12.4531C10.2031 12.8281 8.01562 12.7344 7.01562 12.7344C5.98438 12.7344 3.79688 12.8281 2.89062 12.4531C2.26562 12.2031 1.79688 11.7344 1.54688 11.1094C1.17188 10.2031 1.26562 8.01562 1.26562 6.98438C1.26562 5.98438 1.17188 3.79688 1.54688 2.85938C1.79688 2.26562 2.26562 1.79688 2.89062 1.54688C3.79688 1.17188 5.98438 1.26562 7.01562 1.26562C8.01562 1.26562 10.2031 1.17188 11.1406 1.54688C11.7344 1.76562 12.2031 2.26562 12.4531 2.85938C12.8281 3.79688 12.7344 5.98438 12.7344 6.98438C12.7344 8.01562 12.8281 10.2031 12.4531 11.1094Z" fill="#5A5A5A" fill-opacity="1.000000" fill-rule="evenodd"/>
</svg>
